<svg width="50" height="50" viewBox="0 0 50 50" fill="none" xmlns="http://www.w3.org/2000/svg">
<path d="M20 15H19C17.6 15 16.9 15 16.365 15.2725C15.8946 15.5122 15.5122 15.8946 15.2725 16.365C15 16.9 15 17.6 15 19V20M20 15H30M20 15V12.5M15 20V31C15 32.4 15 33.1 15.2725 33.635C15.5122 34.1054 15.8946 34.4878 16.365 34.7275C16.8987 35 17.5987 35 18.9963 35H31.0037C32.4012 35 33.1 35 33.6337 34.7275C34.105 34.4875 34.4875 34.105 34.7275 33.635C35 33.1 35 32.4025 35 31.005V20M15 20H35M30 15H31C32.4 15 33.1 15 33.6337 15.2725C34.105 15.5125 34.4875 15.8938 34.7275 16.365C35 16.8987 35 17.5987 35 18.9963V20M30 15V12.5M30 30H30.0025V30.0025H30V30ZM25 30H25.0025V30.0025H25V30ZM20 30H20.0025V30.0025H20V30ZM30.0025 25V25.0025H30V25H30.0025ZM25 25H25.0025V25.0025H25V25ZM20 25H20.0025V25.0025H20V25Z" stroke="#D9D9D9" stroke-width="2" stroke-linecap="round" stroke-linejoin="round"/>
</svg>
