<svg width="50" height="50" viewBox="0 0 50 50" fill="none" xmlns="http://www.w3.org/2000/svg">
<path d="M35 31.2499V24.3149C35 23.6474 35 23.3137 34.9187 23.0024C34.8468 22.7273 34.7284 22.4665 34.5688 22.2312C34.3875 21.9649 34.1375 21.7437 33.6337 21.3049L27.6338 16.0549C26.7013 15.2387 26.2338 14.8299 25.7088 14.6749C25.2463 14.5374 24.7538 14.5374 24.29 14.6749C23.765 14.8299 23.3 15.2374 22.3675 16.0524L16.3662 21.3049C15.8637 21.7449 15.6125 21.9649 15.4325 22.2299C15.2722 22.4655 15.1535 22.7268 15.0813 23.0024C15 23.3124 15 23.6474 15 24.3149V31.2499C15 32.4149 15 32.9974 15.19 33.4562C15.3155 33.7596 15.4995 34.0353 15.7316 34.2676C15.9637 34.4998 16.2392 34.6841 16.5425 34.8099C17.0025 34.9999 17.585 34.9999 18.75 34.9999C19.915 34.9999 20.4975 34.9999 20.9575 34.8099C21.2608 34.6841 21.5363 34.4998 21.7684 34.2676C22.0005 34.0353 22.1845 33.7596 22.31 33.4562C22.5 32.9974 22.5 32.4149 22.5 31.2499V29.9999C22.5 29.3369 22.7634 28.701 23.2322 28.2321C23.7011 27.7633 24.337 27.4999 25 27.4999C25.663 27.4999 26.2989 27.7633 26.7678 28.2321C27.2366 28.701 27.5 29.3369 27.5 29.9999V31.2499C27.5 32.4149 27.5 32.9974 27.69 33.4562C27.8155 33.7596 27.9995 34.0353 28.2316 34.2676C28.4637 34.4998 28.7392 34.6841 29.0425 34.8099C29.5025 34.9999 30.085 34.9999 31.25 34.9999C32.415 34.9999 32.9975 34.9999 33.4575 34.8099C33.7608 34.6841 34.0363 34.4998 34.2684 34.2676C34.5005 34.0353 34.6845 33.7596 34.81 33.4562C35 32.9974 35 32.4149 35 31.2499Z" stroke="#9EC635" stroke-width="2" stroke-linecap="round" stroke-linejoin="round"/>
</svg>
