<svg width="50" height="50" viewBox="0 0 50 50" fill="none" xmlns="http://www.w3.org/2000/svg">
<path d="M35.4375 21.1537L34.98 20.8987L34.8387 20.8187C34.498 20.6142 34.2108 20.3314 34.0012 19.9937C33.9787 19.9599 33.9587 19.9237 33.9187 19.8537C33.6492 19.4211 33.5184 18.9165 33.5437 18.4074L33.5512 17.8762C33.5662 17.0262 33.5737 16.5987 33.4537 16.2162C33.3476 15.8759 33.1698 15.5622 32.9325 15.2962C32.665 14.9962 32.2937 14.7812 31.55 14.3537L30.9325 13.9974C30.1925 13.5712 29.8212 13.3574 29.4275 13.2762C29.0796 13.2042 28.7204 13.2072 28.3737 13.2849C27.9825 13.3724 27.6162 13.5924 26.885 14.0299L26.8812 14.0324L26.4387 14.2962C26.3687 14.3387 26.3325 14.3587 26.2975 14.3787C25.95 14.5724 25.5625 14.6787 25.1637 14.6912C25.1237 14.6937 25.0825 14.6937 25.0012 14.6937L24.8387 14.6924C24.4399 14.6797 24.0498 14.5717 23.7012 14.3774C23.6662 14.3587 23.6325 14.3374 23.5625 14.2949L23.1162 14.0274C22.38 13.5849 22.0112 13.3649 21.6175 13.2762C21.2695 13.1983 20.909 13.1958 20.56 13.2687C20.165 13.3512 19.795 13.5662 19.0537 13.9962L19.05 13.9974L18.44 14.3512L18.4337 14.3562C17.6987 14.7812 17.33 14.9962 17.065 15.2949C16.8288 15.5604 16.652 15.8732 16.5462 16.2124C16.4275 16.5962 16.4337 17.0237 16.4487 17.8787L16.4575 18.4087C16.4575 18.4899 16.4612 18.5299 16.46 18.5687C16.4535 19.0228 16.3234 19.4666 16.0837 19.8524C16.0425 19.9224 16.0237 19.9574 16.0025 19.9899C15.7917 20.3302 15.5024 20.6148 15.1587 20.8199L15.0187 20.8987L14.5675 21.1487C13.815 21.5649 13.4387 21.7737 13.1662 22.0712C12.924 22.3335 12.7407 22.6446 12.6287 22.9837C12.5037 23.3674 12.5037 23.7962 12.505 24.6562L12.5075 25.3599C12.5087 26.2137 12.5112 26.6399 12.6375 27.0212C12.749 27.3581 12.9309 27.6675 13.1712 27.9287C13.4437 28.2237 13.8162 28.4312 14.5625 28.8462L15.01 29.0949C15.0862 29.1374 15.125 29.1574 15.1612 29.1799C15.5529 29.4148 15.8729 29.7524 16.0862 30.1562L16.17 30.3062C16.3811 30.7048 16.4805 31.1532 16.4575 31.6037L16.4487 32.1124C16.4337 32.9699 16.4275 33.3999 16.5475 33.7837C16.6537 34.1237 16.8312 34.4374 17.0687 34.7037C17.3362 35.0037 17.7087 35.2174 18.4512 35.6462L19.0687 36.0024C19.81 36.4287 20.18 36.6424 20.5737 36.7237C20.9216 36.7957 21.2808 36.7927 21.6275 36.7149C22.02 36.6274 22.3862 36.4074 23.12 35.9674L23.5625 35.7024L23.7037 35.6199C24.0512 35.4274 24.4387 35.3199 24.8375 35.3074L25 35.3062H25.1625C25.56 35.3187 25.95 35.4274 26.3 35.6212L26.415 35.6899L26.885 35.9724C27.6225 36.4149 27.99 36.6349 28.3837 36.7224C28.7315 36.8011 29.092 36.8046 29.4412 36.7324C29.835 36.6499 30.2075 36.4337 30.9487 36.0037L31.5675 35.6449C32.3025 35.2174 32.6712 35.0037 32.9362 34.7049C33.1737 34.4387 33.3487 34.1262 33.455 33.7874C33.5737 33.4062 33.5675 32.9824 33.5525 32.1399L33.5425 31.5899V31.4312C33.5483 30.9767 33.678 30.5325 33.9175 30.1462L33.9987 30.0087C34.2095 29.6685 34.4988 29.3838 34.8425 29.1787L34.98 29.1024L34.9825 29.1012L35.4337 28.8512C36.1862 28.4337 36.5625 28.2262 36.8362 27.9287C37.0787 27.6662 37.2612 27.3537 37.3725 27.0162C37.4975 26.6349 37.4975 26.2074 37.495 25.3574L37.4925 24.6399C37.4912 23.7862 37.49 23.3587 37.3637 22.9774C37.2517 22.6408 37.0693 22.3319 36.8287 22.0712C36.5575 21.7762 36.185 21.5687 35.44 21.1549L35.4375 21.1537Z" stroke="#D9D9D9" stroke-width="2" stroke-linecap="round" stroke-linejoin="round"/>
<path d="M20 25C20 26.3261 20.5268 27.5979 21.4645 28.5355C22.4021 29.4732 23.6739 30 25 30C26.3261 30 27.5979 29.4732 28.5355 28.5355C29.4732 27.5979 30 26.3261 30 25C30 23.6739 29.4732 22.4021 28.5355 21.4645C27.5979 20.5268 26.3261 20 25 20C23.6739 20 22.4021 20.5268 21.4645 21.4645C20.5268 22.4021 20 23.6739 20 25Z" stroke="#D9D9D9" stroke-width="2" stroke-linecap="round" stroke-linejoin="round"/>
</svg>
